<mxfile host="app.diagrams.net" modified="2023-04-23T21:25:05.931Z" agent="Mozilla/5.0 (Windows NT 10.0; Win64; x64) AppleWebKit/537.36 (KHTML, like Gecko) Chrome/112.0.0.0 Safari/537.36" etag="OYUyxDF1rTJgx2k_ZhZw" version="21.2.1" type="device">
  <diagram name="Σελίδα-1" id="NNdJsYqX0s07n_G0f52t">
    <mxGraphModel dx="659" dy="527" grid="1" gridSize="10" guides="1" tooltips="1" connect="1" arrows="1" fold="1" page="1" pageScale="1" pageWidth="1169" pageHeight="1654" math="0" shadow="0">
      <root>
        <mxCell id="0" />
        <mxCell id="1" parent="0" />
        <mxCell id="W5RsYogn2YQ9vcaaKfSq-3" value="" style="edgeStyle=none;rounded=0;orthogonalLoop=1;jettySize=auto;html=1;" edge="1" parent="1" source="W5RsYogn2YQ9vcaaKfSq-1" target="W5RsYogn2YQ9vcaaKfSq-2">
          <mxGeometry relative="1" as="geometry" />
        </mxCell>
        <mxCell id="W5RsYogn2YQ9vcaaKfSq-5" value="Επιλογή άθληση&lt;br&gt;και υπολογισμός&amp;nbsp;&lt;br&gt;θερμίδων" style="edgeLabel;html=1;align=center;verticalAlign=middle;resizable=0;points=[];" vertex="1" connectable="0" parent="W5RsYogn2YQ9vcaaKfSq-3">
          <mxGeometry x="-0.4314" relative="1" as="geometry">
            <mxPoint x="30" y="-30" as="offset" />
          </mxGeometry>
        </mxCell>
        <mxCell id="W5RsYogn2YQ9vcaaKfSq-11" value="" style="edgeStyle=none;rounded=0;orthogonalLoop=1;jettySize=auto;html=1;entryX=-0.032;entryY=0.491;entryDx=0;entryDy=0;entryPerimeter=0;" edge="1" parent="1" source="W5RsYogn2YQ9vcaaKfSq-1" target="W5RsYogn2YQ9vcaaKfSq-9">
          <mxGeometry relative="1" as="geometry">
            <mxPoint x="530" y="369.5" as="sourcePoint" />
            <mxPoint x="787.5" y="369.5" as="targetPoint" />
          </mxGeometry>
        </mxCell>
        <mxCell id="W5RsYogn2YQ9vcaaKfSq-12" value="Επιλέγει δραστηριότητα" style="edgeLabel;html=1;align=center;verticalAlign=middle;resizable=0;points=[];" vertex="1" connectable="0" parent="W5RsYogn2YQ9vcaaKfSq-11">
          <mxGeometry x="0.3111" y="1" relative="1" as="geometry">
            <mxPoint y="-8" as="offset" />
          </mxGeometry>
        </mxCell>
        <mxCell id="W5RsYogn2YQ9vcaaKfSq-22" value="" style="edgeStyle=none;rounded=0;orthogonalLoop=1;jettySize=auto;html=1;" edge="1" parent="1" source="W5RsYogn2YQ9vcaaKfSq-1" target="W5RsYogn2YQ9vcaaKfSq-20">
          <mxGeometry relative="1" as="geometry" />
        </mxCell>
        <mxCell id="W5RsYogn2YQ9vcaaKfSq-23" value="Επιλέγει &lt;br&gt;δραστηριότητα&lt;br&gt;&amp;nbsp;από τη λίστα&lt;br&gt;&amp;nbsp;του API" style="edgeLabel;html=1;align=center;verticalAlign=middle;resizable=0;points=[];" vertex="1" connectable="0" parent="W5RsYogn2YQ9vcaaKfSq-22">
          <mxGeometry x="0.2118" y="-2" relative="1" as="geometry">
            <mxPoint x="24" y="-3" as="offset" />
          </mxGeometry>
        </mxCell>
        <mxCell id="W5RsYogn2YQ9vcaaKfSq-33" value="" style="edgeStyle=none;rounded=0;orthogonalLoop=1;jettySize=auto;html=1;" edge="1" parent="1" source="W5RsYogn2YQ9vcaaKfSq-1" target="W5RsYogn2YQ9vcaaKfSq-31">
          <mxGeometry relative="1" as="geometry" />
        </mxCell>
        <mxCell id="W5RsYogn2YQ9vcaaKfSq-34" value="Καταχωρεί &lt;br&gt;τα στοιχεία της&lt;br&gt;&amp;nbsp;δραστηριότητας" style="edgeLabel;html=1;align=center;verticalAlign=middle;resizable=0;points=[];" vertex="1" connectable="0" parent="W5RsYogn2YQ9vcaaKfSq-33">
          <mxGeometry x="0.1835" y="1" relative="1" as="geometry">
            <mxPoint x="46" y="32" as="offset" />
          </mxGeometry>
        </mxCell>
        <mxCell id="W5RsYogn2YQ9vcaaKfSq-43" value="" style="edgeStyle=none;rounded=0;orthogonalLoop=1;jettySize=auto;html=1;" edge="1" parent="1" source="W5RsYogn2YQ9vcaaKfSq-1" target="W5RsYogn2YQ9vcaaKfSq-42">
          <mxGeometry relative="1" as="geometry" />
        </mxCell>
        <mxCell id="W5RsYogn2YQ9vcaaKfSq-51" value="Ξεκινά/σταματά&amp;nbsp;&lt;br&gt;το χρονόμετρο" style="edgeLabel;html=1;align=center;verticalAlign=middle;resizable=0;points=[];" vertex="1" connectable="0" parent="W5RsYogn2YQ9vcaaKfSq-43">
          <mxGeometry x="-0.4128" y="4" relative="1" as="geometry">
            <mxPoint x="-46" y="-5" as="offset" />
          </mxGeometry>
        </mxCell>
        <mxCell id="W5RsYogn2YQ9vcaaKfSq-1" value="Χρήστης" style="shape=umlActor;verticalLabelPosition=bottom;verticalAlign=top;html=1;outlineConnect=0;" vertex="1" parent="1">
          <mxGeometry x="420" y="250" width="30" height="60" as="geometry" />
        </mxCell>
        <mxCell id="W5RsYogn2YQ9vcaaKfSq-8" value="" style="edgeStyle=none;rounded=0;orthogonalLoop=1;jettySize=auto;html=1;" edge="1" parent="1" source="W5RsYogn2YQ9vcaaKfSq-2" target="W5RsYogn2YQ9vcaaKfSq-7">
          <mxGeometry relative="1" as="geometry" />
        </mxCell>
        <mxCell id="W5RsYogn2YQ9vcaaKfSq-2" value="Σελίδα άθληση και υπολογισμός θερμίδων" style="shape=umlBoundary;whiteSpace=wrap;html=1;" vertex="1" parent="1">
          <mxGeometry x="690" y="220" width="100" height="80" as="geometry" />
        </mxCell>
        <mxCell id="W5RsYogn2YQ9vcaaKfSq-10" value="" style="edgeStyle=none;rounded=0;orthogonalLoop=1;jettySize=auto;html=1;" edge="1" parent="1" source="W5RsYogn2YQ9vcaaKfSq-7" target="W5RsYogn2YQ9vcaaKfSq-9">
          <mxGeometry relative="1" as="geometry" />
        </mxCell>
        <mxCell id="W5RsYogn2YQ9vcaaKfSq-7" value="Εμφάνισε" style="ellipse;shape=umlControl;whiteSpace=wrap;html=1;" vertex="1" parent="1">
          <mxGeometry x="867.5" y="220" width="70" height="80" as="geometry" />
        </mxCell>
        <mxCell id="W5RsYogn2YQ9vcaaKfSq-15" value="" style="edgeStyle=none;rounded=0;orthogonalLoop=1;jettySize=auto;html=1;" edge="1" parent="1" source="W5RsYogn2YQ9vcaaKfSq-9" target="W5RsYogn2YQ9vcaaKfSq-14">
          <mxGeometry relative="1" as="geometry" />
        </mxCell>
        <mxCell id="W5RsYogn2YQ9vcaaKfSq-9" value="Σελίδα επιλογή δραστηριότητας" style="shape=umlBoundary;whiteSpace=wrap;html=1;" vertex="1" parent="1">
          <mxGeometry x="850" y="325" width="105" height="90" as="geometry" />
        </mxCell>
        <mxCell id="W5RsYogn2YQ9vcaaKfSq-17" value="" style="edgeStyle=none;rounded=0;orthogonalLoop=1;jettySize=auto;html=1;" edge="1" parent="1" source="W5RsYogn2YQ9vcaaKfSq-14" target="W5RsYogn2YQ9vcaaKfSq-16">
          <mxGeometry relative="1" as="geometry" />
        </mxCell>
        <mxCell id="W5RsYogn2YQ9vcaaKfSq-19" value="" style="edgeStyle=none;rounded=0;orthogonalLoop=1;jettySize=auto;html=1;" edge="1" parent="1" source="W5RsYogn2YQ9vcaaKfSq-14" target="W5RsYogn2YQ9vcaaKfSq-18">
          <mxGeometry relative="1" as="geometry" />
        </mxCell>
        <mxCell id="W5RsYogn2YQ9vcaaKfSq-25" value="Υπάρχει;" style="edgeLabel;html=1;align=center;verticalAlign=middle;resizable=0;points=[];" vertex="1" connectable="0" parent="W5RsYogn2YQ9vcaaKfSq-19">
          <mxGeometry x="-0.5158" y="2" relative="1" as="geometry">
            <mxPoint x="-27" y="-19" as="offset" />
          </mxGeometry>
        </mxCell>
        <mxCell id="W5RsYogn2YQ9vcaaKfSq-27" value="" style="edgeStyle=none;rounded=0;orthogonalLoop=1;jettySize=auto;html=1;" edge="1" parent="1" source="W5RsYogn2YQ9vcaaKfSq-14" target="W5RsYogn2YQ9vcaaKfSq-26">
          <mxGeometry relative="1" as="geometry" />
        </mxCell>
        <mxCell id="W5RsYogn2YQ9vcaaKfSq-28" value="Δεν&amp;nbsp;&lt;br&gt;υπάρχει;" style="edgeLabel;html=1;align=center;verticalAlign=middle;resizable=0;points=[];" vertex="1" connectable="0" parent="W5RsYogn2YQ9vcaaKfSq-27">
          <mxGeometry x="-0.4667" y="-1" relative="1" as="geometry">
            <mxPoint x="-29" y="7" as="offset" />
          </mxGeometry>
        </mxCell>
        <mxCell id="W5RsYogn2YQ9vcaaKfSq-14" value="Αναζήτησε δραστηριότητα" style="ellipse;shape=umlControl;whiteSpace=wrap;html=1;" vertex="1" parent="1">
          <mxGeometry x="867.5" y="440" width="85" height="90" as="geometry" />
        </mxCell>
        <mxCell id="W5RsYogn2YQ9vcaaKfSq-16" value="ΑPI δραστηριοτήτων" style="ellipse;shape=umlEntity;whiteSpace=wrap;html=1;" vertex="1" parent="1">
          <mxGeometry x="1000" y="440" width="90" height="90" as="geometry" />
        </mxCell>
        <mxCell id="W5RsYogn2YQ9vcaaKfSq-21" value="" style="edgeStyle=none;rounded=0;orthogonalLoop=1;jettySize=auto;html=1;" edge="1" parent="1" source="W5RsYogn2YQ9vcaaKfSq-18" target="W5RsYogn2YQ9vcaaKfSq-20">
          <mxGeometry relative="1" as="geometry" />
        </mxCell>
        <mxCell id="W5RsYogn2YQ9vcaaKfSq-18" value="Εμφάνισε" style="ellipse;shape=umlControl;whiteSpace=wrap;html=1;" vertex="1" parent="1">
          <mxGeometry x="710" y="435" width="75" height="95" as="geometry" />
        </mxCell>
        <mxCell id="W5RsYogn2YQ9vcaaKfSq-48" value="" style="edgeStyle=none;rounded=0;orthogonalLoop=1;jettySize=auto;html=1;" edge="1" parent="1" source="W5RsYogn2YQ9vcaaKfSq-20" target="W5RsYogn2YQ9vcaaKfSq-44">
          <mxGeometry relative="1" as="geometry" />
        </mxCell>
        <mxCell id="W5RsYogn2YQ9vcaaKfSq-20" value="Σελίδα λίστα αθλητικών δραστηριοτήτων" style="shape=umlBoundary;whiteSpace=wrap;html=1;" vertex="1" parent="1">
          <mxGeometry x="590" y="370" width="100" height="82.5" as="geometry" />
        </mxCell>
        <mxCell id="W5RsYogn2YQ9vcaaKfSq-30" value="" style="edgeStyle=none;rounded=0;orthogonalLoop=1;jettySize=auto;html=1;" edge="1" parent="1" source="W5RsYogn2YQ9vcaaKfSq-26" target="W5RsYogn2YQ9vcaaKfSq-29">
          <mxGeometry relative="1" as="geometry" />
        </mxCell>
        <mxCell id="W5RsYogn2YQ9vcaaKfSq-26" value="Σελίδα μηνύματος σφάλματος" style="shape=umlBoundary;whiteSpace=wrap;html=1;" vertex="1" parent="1">
          <mxGeometry x="860" y="580" width="100" height="80" as="geometry" />
        </mxCell>
        <mxCell id="W5RsYogn2YQ9vcaaKfSq-32" value="" style="edgeStyle=none;rounded=0;orthogonalLoop=1;jettySize=auto;html=1;" edge="1" parent="1" source="W5RsYogn2YQ9vcaaKfSq-29" target="W5RsYogn2YQ9vcaaKfSq-31">
          <mxGeometry relative="1" as="geometry" />
        </mxCell>
        <mxCell id="W5RsYogn2YQ9vcaaKfSq-29" value="Εμφάνισε" style="ellipse;shape=umlControl;whiteSpace=wrap;html=1;" vertex="1" parent="1">
          <mxGeometry x="730" y="580" width="70" height="80" as="geometry" />
        </mxCell>
        <mxCell id="W5RsYogn2YQ9vcaaKfSq-36" value="" style="edgeStyle=none;rounded=0;orthogonalLoop=1;jettySize=auto;html=1;" edge="1" parent="1" source="W5RsYogn2YQ9vcaaKfSq-31" target="W5RsYogn2YQ9vcaaKfSq-35">
          <mxGeometry relative="1" as="geometry" />
        </mxCell>
        <mxCell id="W5RsYogn2YQ9vcaaKfSq-31" value="Σελίδα καταχώρηση στοιχείων" style="shape=umlBoundary;whiteSpace=wrap;html=1;" vertex="1" parent="1">
          <mxGeometry x="580" y="580" width="100" height="80" as="geometry" />
        </mxCell>
        <mxCell id="W5RsYogn2YQ9vcaaKfSq-38" value="" style="edgeStyle=none;rounded=0;orthogonalLoop=1;jettySize=auto;html=1;" edge="1" parent="1" source="W5RsYogn2YQ9vcaaKfSq-35" target="W5RsYogn2YQ9vcaaKfSq-37">
          <mxGeometry relative="1" as="geometry" />
        </mxCell>
        <mxCell id="W5RsYogn2YQ9vcaaKfSq-35" value="Εμφάνισε" style="ellipse;shape=umlControl;whiteSpace=wrap;html=1;" vertex="1" parent="1">
          <mxGeometry x="470" y="580" width="67.5" height="80" as="geometry" />
        </mxCell>
        <mxCell id="W5RsYogn2YQ9vcaaKfSq-41" value="" style="edgeStyle=none;rounded=0;orthogonalLoop=1;jettySize=auto;html=1;entryX=0.44;entryY=1.01;entryDx=0;entryDy=0;entryPerimeter=0;" edge="1" parent="1" source="W5RsYogn2YQ9vcaaKfSq-37" target="W5RsYogn2YQ9vcaaKfSq-40">
          <mxGeometry relative="1" as="geometry">
            <mxPoint x="258.13" y="600" as="targetPoint" />
          </mxGeometry>
        </mxCell>
        <mxCell id="W5RsYogn2YQ9vcaaKfSq-37" value="Σελίδα επιτυχούς καταχώρησης" style="shape=umlBoundary;whiteSpace=wrap;html=1;" vertex="1" parent="1">
          <mxGeometry x="340" y="580" width="100" height="80" as="geometry" />
        </mxCell>
        <mxCell id="W5RsYogn2YQ9vcaaKfSq-50" value="" style="edgeStyle=none;rounded=0;orthogonalLoop=1;jettySize=auto;html=1;" edge="1" parent="1" source="W5RsYogn2YQ9vcaaKfSq-40" target="W5RsYogn2YQ9vcaaKfSq-42">
          <mxGeometry relative="1" as="geometry" />
        </mxCell>
        <mxCell id="W5RsYogn2YQ9vcaaKfSq-40" value="Εμφάνισε&amp;nbsp;" style="ellipse;shape=umlControl;whiteSpace=wrap;html=1;" vertex="1" parent="1">
          <mxGeometry x="360" y="470" width="70" height="80" as="geometry" />
        </mxCell>
        <mxCell id="W5RsYogn2YQ9vcaaKfSq-56" value="" style="edgeStyle=none;rounded=0;orthogonalLoop=1;jettySize=auto;html=1;" edge="1" parent="1" source="W5RsYogn2YQ9vcaaKfSq-42" target="W5RsYogn2YQ9vcaaKfSq-55">
          <mxGeometry relative="1" as="geometry" />
        </mxCell>
        <mxCell id="W5RsYogn2YQ9vcaaKfSq-42" value="Σελίδα χρονόμετρο" style="shape=umlBoundary;whiteSpace=wrap;html=1;" vertex="1" parent="1">
          <mxGeometry x="230" y="360" width="100" height="80" as="geometry" />
        </mxCell>
        <mxCell id="W5RsYogn2YQ9vcaaKfSq-49" value="" style="edgeStyle=none;rounded=0;orthogonalLoop=1;jettySize=auto;html=1;" edge="1" parent="1" source="W5RsYogn2YQ9vcaaKfSq-44" target="W5RsYogn2YQ9vcaaKfSq-42">
          <mxGeometry relative="1" as="geometry" />
        </mxCell>
        <mxCell id="W5RsYogn2YQ9vcaaKfSq-44" value="Εμφάνισε" style="ellipse;shape=umlControl;whiteSpace=wrap;html=1;" vertex="1" parent="1">
          <mxGeometry x="360" y="372.5" width="70" height="80" as="geometry" />
        </mxCell>
        <mxCell id="W5RsYogn2YQ9vcaaKfSq-58" value="" style="edgeStyle=none;rounded=0;orthogonalLoop=1;jettySize=auto;html=1;" edge="1" parent="1" source="W5RsYogn2YQ9vcaaKfSq-55" target="W5RsYogn2YQ9vcaaKfSq-57">
          <mxGeometry relative="1" as="geometry" />
        </mxCell>
        <mxCell id="W5RsYogn2YQ9vcaaKfSq-55" value="Ξεκίνα/σταμάτα το χρονόμετρο" style="ellipse;shape=umlControl;whiteSpace=wrap;html=1;" vertex="1" parent="1">
          <mxGeometry x="140" y="360" width="70" height="80" as="geometry" />
        </mxCell>
        <mxCell id="W5RsYogn2YQ9vcaaKfSq-61" value="" style="edgeStyle=none;rounded=0;orthogonalLoop=1;jettySize=auto;html=1;" edge="1" parent="1" source="W5RsYogn2YQ9vcaaKfSq-57" target="W5RsYogn2YQ9vcaaKfSq-60">
          <mxGeometry relative="1" as="geometry" />
        </mxCell>
        <mxCell id="W5RsYogn2YQ9vcaaKfSq-57" value="Εμφάνισε" style="ellipse;shape=umlControl;whiteSpace=wrap;html=1;" vertex="1" parent="1">
          <mxGeometry x="140" y="260" width="70" height="80" as="geometry" />
        </mxCell>
        <mxCell id="W5RsYogn2YQ9vcaaKfSq-64" value="" style="edgeStyle=none;rounded=0;orthogonalLoop=1;jettySize=auto;html=1;" edge="1" parent="1" source="W5RsYogn2YQ9vcaaKfSq-60" target="W5RsYogn2YQ9vcaaKfSq-63">
          <mxGeometry relative="1" as="geometry" />
        </mxCell>
        <mxCell id="W5RsYogn2YQ9vcaaKfSq-60" value="Λίστα θερμίδων που κάηκαν" style="shape=umlBoundary;whiteSpace=wrap;html=1;" vertex="1" parent="1">
          <mxGeometry x="125" y="140" width="100" height="80" as="geometry" />
        </mxCell>
        <mxCell id="W5RsYogn2YQ9vcaaKfSq-70" value="" style="edgeStyle=none;rounded=0;orthogonalLoop=1;jettySize=auto;html=1;" edge="1" parent="1" source="W5RsYogn2YQ9vcaaKfSq-63" target="W5RsYogn2YQ9vcaaKfSq-69">
          <mxGeometry relative="1" as="geometry" />
        </mxCell>
        <mxCell id="W5RsYogn2YQ9vcaaKfSq-63" value="Αφαίρεση θερμίδων από ημερήσια λίστα" style="ellipse;shape=umlControl;whiteSpace=wrap;html=1;" vertex="1" parent="1">
          <mxGeometry x="140" y="20" width="70" height="80" as="geometry" />
        </mxCell>
        <mxCell id="W5RsYogn2YQ9vcaaKfSq-68" value="" style="edgeStyle=none;rounded=0;orthogonalLoop=1;jettySize=auto;html=1;" edge="1" parent="1" source="W5RsYogn2YQ9vcaaKfSq-65" target="W5RsYogn2YQ9vcaaKfSq-63">
          <mxGeometry relative="1" as="geometry" />
        </mxCell>
        <mxCell id="W5RsYogn2YQ9vcaaKfSq-65" value="Ημερήσια λίστα" style="ellipse;shape=umlEntity;whiteSpace=wrap;html=1;" vertex="1" parent="1">
          <mxGeometry x="30" y="30" width="70" height="60" as="geometry" />
        </mxCell>
        <mxCell id="W5RsYogn2YQ9vcaaKfSq-69" value="Σελίδα ημερήσια λίστα&amp;nbsp;" style="shape=umlBoundary;whiteSpace=wrap;html=1;" vertex="1" parent="1">
          <mxGeometry x="290" y="20" width="100" height="80" as="geometry" />
        </mxCell>
      </root>
    </mxGraphModel>
  </diagram>
</mxfile>
